<svg xmlns="http://www.w3.org/2000/svg" xmlns:xlink="http://www.w3.org/1999/xlink" width="37" height="38" viewBox="0 0 37 38">
  <defs>
    <clipPath id="clip-path">
      <rect id="Rectangle_88" data-name="Rectangle 88" width="37" height="38" transform="translate(0.42 -0.13)"/>
    </clipPath>
  </defs>
  <g id="Mask_Group_9" data-name="Mask Group 9" transform="translate(-0.42 0.13)" clip-path="url(#clip-path)">
    <g id="Page-1" transform="translate(0 0.001)">
      <g id="Dribbble-Light-Preview">
        <g id="icons">
          <path id="github-_142_" data-name="github-[#142]" d="M270.87,22197a19.11,19.11,0,0,1,18.87,19.342,19.319,19.319,0,0,1-12.894,18.359c-.957.189-1.3-.416-1.3-.924,0-.643.023-2.719.023-5.32a4.668,4.668,0,0,0-1.281-3.566c4.2-.492,8.618-2.113,8.618-9.549a7.534,7.534,0,0,0-1.944-5.189,7.138,7.138,0,0,0-.185-5.133s-1.581-.51-5.184,1.98a17.745,17.745,0,0,0-9.45,0c-3.606-2.49-5.191-1.98-5.191-1.98a7.166,7.166,0,0,0-.183,5.133,7.56,7.56,0,0,0-1.944,5.189c0,7.416,4.406,9.076,8.6,9.568a4.083,4.083,0,0,0-1.2,2.584,3.969,3.969,0,0,1-5.491-1.623,3.958,3.958,0,0,0-2.893-1.98s-1.84-.039-.128,1.168a5.152,5.152,0,0,1,2.095,2.832s1.108,3.453,6.357,2.281c.009,1.625.026,3.152.026,3.605,0,.508-.347,1.113-1.289.924a19.417,19.417,0,0,1,5.965-37.7" transform="translate(-252 -22197)" fill-rule="evenodd"/>
        </g>
      </g>
    </g>
  </g>
</svg>
