<svg xmlns="http://www.w3.org/2000/svg" xmlns:xlink="http://www.w3.org/1999/xlink" width="37" height="38" viewBox="0 0 37 38">
  <defs>
    <clipPath id="clip-path">
      <rect id="Rectangle_87" data-name="Rectangle 87" width="37" height="38" transform="translate(0.32 -0.13)"/>
    </clipPath>
  </defs>
  <g id="Mask_Group_8" data-name="Mask Group 8" transform="translate(-0.32 0.13)" clip-path="url(#clip-path)">
    <g id="SVGRepo_iconCarrier">
      <g id="Page-1">
        <g id="Dribbble-Light-Preview">
          <g id="icons">
            <path id="linkedin-_161_" data-name="linkedin-[#161]" d="M409.74,21994.74h-7.548v-13.209c0-3.623-1.6-5.643-4.465-5.643-3.119,0-4.97,2.115-4.97,5.643v13.209h-7.548v-24.531h7.548v2.754a9.1,9.1,0,0,1,7.7-4.15c5.338,0,9.278,3.266,9.278,10v15.926Zm-33.132-28.455a4.643,4.643,0,1,1,4.606-4.643,4.624,4.624,0,0,1-4.606,4.643ZM372,21994.74h9.435v-24.531H372Z" transform="translate(-372 -21957)" fill-rule="evenodd"/>
          </g>
        </g>
      </g>
    </g>
  </g>
</svg>
