<svg xmlns="http://www.w3.org/2000/svg" xmlns:xlink="http://www.w3.org/1999/xlink" width="29" height="29" viewBox="0 0 29 29">
  <defs>
    <clipPath id="clip-path">
      <rect id="Rectangle_85" data-name="Rectangle 85" width="29" height="29" transform="translate(311 564)" fill="#fff"/>
    </clipPath>
  </defs>
  <g id="Mask_Group_7" data-name="Mask Group 7" transform="translate(-311 -564)" clip-path="url(#clip-path)">
    <path id="cinema4d-svgrepo-com_1_" data-name="cinema4d-svgrepo-com (1)" d="M14.563,6.211A17.384,17.384,0,0,0,6.42,9.748a9.993,9.993,0,0,0-.331,2.51A10.8,10.8,0,0,0,17.163,22.772a10.9,10.9,0,0,0,2.6-.32,20.482,20.482,0,0,0,3.58-9.361c.386-3.375,1.154-4.4,2.11-5.063a3.1,3.1,0,0,1,1.072-.5,9.848,9.848,0,0,0-5.383-5.049c.006.027.017.048.023.075C21.625,4.524,19.521,5.313,14.563,6.211ZM28.078,9.567c-.039-.076-.078-.162-.118-.259-.72-1.763-2.449-.62-2.906.417-.9,2.042-.767,2.934-1.131,5s-1.62,6.056-3.426,8.1a10.214,10.214,0,0,1-9.36,3.842C7.18,26.3,4.13,22.94,3,20.507a9.05,9.05,0,0,1,.03-7.357c1.121-3,4.482-5.44,7.555-6.613s5.506-1.288,7.22-1.787,2.724-1.324,2.661-2.025A2.03,2.03,0,0,0,19.077,1.2,14.838,14.838,0,0,0,14.533.492,14.313,14.313,0,0,0,.033,14.61a14.313,14.313,0,0,0,14.5,14.118,14.313,14.313,0,0,0,14.5-14.118A13.781,13.781,0,0,0,28.078,9.567Z" transform="translate(310.967 563.89)" fill="#fff"/>
  </g>
</svg>
