<svg xmlns="http://www.w3.org/2000/svg" xmlns:xlink="http://www.w3.org/1999/xlink" width="30" height="29" viewBox="0 0 30 29">
  <defs>
    <clipPath id="clip-path">
      <rect id="Rectangle_76" data-name="Rectangle 76" width="30" height="29" transform="translate(0 0.25)" fill="#fff"/>
    </clipPath>
  </defs>
  <g id="Mask_Group_1" data-name="Mask Group 1" transform="translate(0 -0.25)" clip-path="url(#clip-path)">
    <g id="SVGRepo_iconCarrier" transform="translate(1.485 -0.471)">
      <g id="Page-1">
        <g id="Dribbble-Light-Preview">
          <g id="icons">
            <path id="html-_ffffff_" data-name="html-[#ffffff]" d="M36.94,23193.811H24.132l.306,2.969h12.2c-.179,2.6-.72,8.111-.918,10.621l-6.851,1.932v.018h-.015L22,23206.941l-.47-5.7h3.36l.238,3.057,3.733,1.4h.009l3.727-1.338.383-4.605h-11.6c-.056-.592-.777-8.332-.9-8.908H37.24c-.094.979-.189,1.99-.3,2.969ZM15.5,23184.9l2.433,26.957,10.919,2.75L39.8,23211.8l2.436-26.9Z" transform="translate(-15.5 -23184.898)" fill="#fff" fill-rule="evenodd"/>
          </g>
        </g>
      </g>
    </g>
  </g>
</svg>
