<svg xmlns="http://www.w3.org/2000/svg" xmlns:xlink="http://www.w3.org/1999/xlink" width="39" height="39" viewBox="0 0 39 39">
  <defs>
    <clipPath id="clip-path">
      <rect id="Rectangle_81" data-name="Rectangle 81" width="39" height="39" transform="translate(0.25)" fill="#fff"/>
    </clipPath>
  </defs>
  <g id="Mask_Group_5" data-name="Mask Group 5" transform="translate(-0.25)" clip-path="url(#clip-path)">
    <g id="SVGRepo_iconCarrier" transform="translate(0.313 0.784)">
      <path id="Path_7" data-name="Path 7" d="M29.776,7.817V29.776H7.817V7.817H29.776m0-3.137H7.817A3.137,3.137,0,0,0,4.68,7.817V29.776a3.137,3.137,0,0,0,3.137,3.137H29.776a3.137,3.137,0,0,0,3.137-3.137V7.817A3.137,3.137,0,0,0,29.776,4.68Z" transform="translate(0.026 0.026)" fill="#fff"/>
      <rect id="Rectangle_82" data-name="Rectangle 82" width="37.645" height="37.645" fill="none"/>
      <g id="Group_8" data-name="Group 8" transform="translate(10.478 12.536)">
        <path id="Path_8" data-name="Path 8" d="M18.938,16.354A3.78,3.78,0,0,1,17.683,19.4a5.27,5.27,0,0,1-3.529,1.051H13.04v4.376H10.421V12.48h3.937a5.207,5.207,0,0,1,3.4.972,3.482,3.482,0,0,1,1.176,2.9Zm-5.9,1.961h.847a2.855,2.855,0,0,0,1.741-.486,1.569,1.569,0,0,0,.6-1.38,1.694,1.694,0,0,0-.5-1.365,2.368,2.368,0,0,0-1.569-.439H13.04Z" transform="translate(-10.421 -12.468)" fill="#fff"/>
        <path id="Path_9" data-name="Path 9" d="M27.058,22.017a2.635,2.635,0,0,1-1,2.212,5.019,5.019,0,0,1-3.012.753,9.411,9.411,0,0,1-1.757-.141,6.274,6.274,0,0,1-1.365-.408V22.315a10.226,10.226,0,0,0,1.569.565,7.184,7.184,0,0,0,1.569.22c.925,0,1.4-.267,1.4-.8a.69.69,0,0,0-.188-.5,2.353,2.353,0,0,0-.627-.424l-1.223-.565a7.231,7.231,0,0,1-1.569-.847,2.431,2.431,0,0,1-.737-.878,2.965,2.965,0,0,1-.235-1.239,2.259,2.259,0,0,1,.972-1.945,4.784,4.784,0,0,1,2.761-.69,7.67,7.67,0,0,1,3.31.753l-.769,1.851a12.987,12.987,0,0,0-1.318-.5,4.266,4.266,0,0,0-1.255-.188c-.769,0-1.145.2-1.145.612a.722.722,0,0,0,.376.6,8.721,8.721,0,0,0,1.569.753,7.842,7.842,0,0,1,1.569.831,2.494,2.494,0,0,1,.753.894,2.635,2.635,0,0,1,.361,1.208Z" transform="translate(-10.369 -12.453)" fill="#fff"/>
      </g>
    </g>
  </g>
</svg>
